<svg width="80" height="82" viewBox="0 0 80 82" fill="none" xmlns="http://www.w3.org/2000/svg">
<path d="M40.2606 69.9273C37.5831 69.9273 35.4044 67.7561 35.4044 65.0889C35.4044 64.4151 35.9525 63.8684 36.629 63.8684C37.3056 63.8684 37.8533 64.4146 37.8533 65.0889C37.8533 66.4109 38.933 67.4874 40.2606 67.4874C41.5872 67.4874 42.667 66.4113 42.667 65.0889C42.667 63.7673 41.5877 62.6904 40.2606 62.6904C37.5831 62.6904 35.4044 60.5201 35.4044 57.851C35.4044 55.1837 37.5826 53.0121 40.2606 53.0121C42.9372 53.0121 45.1159 55.1837 45.1159 57.851C45.1159 58.5252 44.5678 59.0723 43.8912 59.0723C43.2146 59.0723 42.6665 58.5257 42.6665 57.851C42.6665 56.5294 41.5872 55.4534 40.2601 55.4534C38.933 55.4534 37.8528 56.529 37.8528 57.851C37.8528 59.1744 38.9326 60.2504 40.2601 60.2504C42.9367 60.2504 45.1154 62.4211 45.1154 65.0889C45.1159 67.7561 42.9376 69.9273 40.2606 69.9273Z" fill="#3B53A0"/>
<path d="M40.2606 80.7964C29.5666 80.7964 20.8672 72.1267 20.8672 61.4699C20.8672 50.8136 29.5671 42.1434 40.2606 42.1434C50.954 42.1434 59.6544 50.8136 59.6544 61.4699C59.6544 72.1267 50.9545 80.7964 40.2606 80.7964ZM40.2606 44.5838C30.9175 44.5838 23.3161 52.1597 23.3161 61.4699C23.3161 70.7815 30.9175 78.356 40.2606 78.356C49.6036 78.356 57.205 70.7815 57.205 61.4699C57.2055 52.1597 49.6041 44.5838 40.2606 44.5838Z" fill="#3B53A0"/>
<path d="M40.2606 76.024C32.2071 76.024 25.6553 69.4955 25.6553 61.4708C25.6553 53.4458 32.2071 46.9167 40.2606 46.9167C48.3131 46.9167 54.8649 53.4458 54.8649 61.4708C54.8654 69.4955 48.3136 76.024 40.2606 76.024ZM40.2606 49.3567C33.5575 49.3567 28.1047 54.7915 28.1047 61.4708C28.1047 68.1497 33.5579 73.5841 40.2606 73.5841C46.9632 73.5841 52.416 68.1497 52.416 61.4708C52.416 54.791 46.9632 49.3567 40.2606 49.3567Z" fill="#3B53A0"/>
<path d="M40.2606 55.4535C39.5845 55.4535 39.0354 54.9077 39.0354 54.233V52.6951C39.0354 52.0213 39.584 51.4751 40.2606 51.4751C40.9367 51.4751 41.4853 52.0213 41.4853 52.6951V54.233C41.4853 54.9073 40.9367 55.4535 40.2606 55.4535Z" fill="#3B53A0"/>
<path d="M40.2606 71.4662C39.5845 71.4662 39.0354 70.92 39.0354 70.2453V68.7069C39.0354 68.0332 39.584 67.4869 40.2606 67.4869C40.9367 67.4869 41.4853 68.0332 41.4853 68.7069V70.2453C41.4853 70.92 40.9367 71.4662 40.2606 71.4662Z" fill="#3B53A0"/>
<path d="M40.2606 40.1331C29.5666 40.1331 20.8672 31.4634 20.8672 20.8061C20.8672 10.1502 29.5671 1.4801 40.2606 1.4801C50.954 1.4801 59.6544 10.1502 59.6544 20.8061C59.6544 31.4629 50.9545 40.1331 40.2606 40.1331ZM40.2606 3.92006C30.9175 3.92006 23.3161 11.495 23.3161 20.8057C23.3161 30.1163 30.9175 37.6927 40.2606 37.6927C49.6036 37.6927 57.205 30.1168 57.205 20.8061C57.205 11.4955 49.6041 3.92006 40.2606 3.92006Z" fill="#3B53A0"/>
<path d="M40.2606 35.4732C32.1449 35.4732 25.5428 28.8941 25.5428 20.8066C25.5428 12.7187 32.1449 6.14001 40.2606 6.14001C48.3758 6.14001 54.9783 12.7187 54.9783 20.8066C54.9787 28.8941 48.3758 35.4732 40.2606 35.4732ZM40.2606 8.57997C33.4958 8.57997 27.9918 14.0649 27.9918 20.8066C27.9918 27.5484 33.4958 33.0333 40.2606 33.0333C47.0258 33.0333 52.5294 27.5484 52.5294 20.8066C52.5294 14.0649 47.0258 8.57997 40.2606 8.57997Z" fill="#3B53A0"/>
<path d="M40.7026 29.6876C35.7883 29.6876 31.7897 25.7038 31.7897 20.8066C31.7897 15.9094 35.7879 11.9255 40.7026 11.9255C42.693 11.9255 44.576 12.5647 46.1472 13.7751C46.683 14.1878 46.7812 14.9541 46.3675 15.4871C45.9543 16.0205 45.1863 16.1203 44.6496 15.7071C43.5108 14.8297 42.1454 14.3659 40.7022 14.3659C37.1387 14.3659 34.2386 17.2551 34.2386 20.807C34.2386 24.359 37.1383 27.2481 40.7022 27.2481C42.17 27.2481 43.5538 26.7698 44.704 25.8651C45.2343 25.4473 46.0055 25.5384 46.4242 26.0669C46.8434 26.5949 46.7529 27.3629 46.2217 27.7807C44.6359 29.0285 42.7278 29.6876 40.7026 29.6876Z" fill="#3B53A0"/>
<path d="M39.8464 18.8463H31.456C30.7794 18.8463 30.2309 18.3005 30.2309 17.6259C30.2309 16.9521 30.7794 16.4059 31.456 16.4059H39.8464C40.5225 16.4059 41.0711 16.9521 41.0711 17.6259C41.0711 18.3005 40.5225 18.8463 39.8464 18.8463Z" fill="#3B53A0"/>
<path d="M39.8464 25.2068H31.456C30.7794 25.2068 30.2309 24.661 30.2309 23.9863C30.2309 23.3126 30.7794 22.7664 31.456 22.7664H39.8464C40.5225 22.7664 41.0711 23.3126 41.0711 23.9863C41.0711 24.661 40.5225 25.2068 39.8464 25.2068Z" fill="#3B53A0"/>
<path d="M72.8686 67.2801C72.1925 67.2801 71.6434 66.7343 71.6434 66.0601V17.4373H63.3692C62.6926 17.4373 62.1445 16.8911 62.1445 16.216C62.1445 15.5422 62.6921 14.996 63.3692 14.996H72.8686C73.5447 14.996 74.0933 15.5422 74.0933 16.216V66.0601C74.0933 66.7339 73.5447 67.2801 72.8686 67.2801Z" fill="#3B53A0"/>
<path d="M67.024 20.0225C66.7785 20.0225 66.5312 19.9501 66.3159 19.7984L62.6601 17.2118C62.3369 16.9822 62.1445 16.6127 62.1445 16.2164C62.1445 15.8209 62.3369 15.4497 62.6601 15.221L66.3159 12.6343C66.8668 12.2444 67.6316 12.3728 68.0229 12.9236C68.4142 13.4726 68.2848 14.2342 67.7335 14.6242L65.4844 16.2159L67.7335 17.8067C68.2848 18.1967 68.4142 18.9584 68.0238 19.5078C67.7847 19.844 67.4071 20.0225 67.024 20.0225Z" fill="#3B53A0"/>
<path d="M66.075 74.5175C65.3989 74.5175 64.8498 73.9717 64.8498 73.2971V29.6626C64.8498 28.9888 65.3989 28.4421 66.075 28.4421C66.7511 28.4421 67.3001 28.9888 67.3001 29.6626V73.2971C67.3001 73.9717 66.7511 74.5175 66.075 74.5175Z" fill="#3B53A0"/>
<path d="M17.1525 67.2801H7.65303C6.97646 67.2801 6.42834 66.7344 6.42834 66.0601V16.2164C6.42834 15.5427 6.97646 14.9965 7.65303 14.9965C8.32914 14.9965 8.87726 15.5427 8.87726 16.2164V64.8402H17.1525C17.8286 64.8402 18.3771 65.3859 18.3771 66.0601C18.3771 66.7344 17.8286 67.2801 17.1525 67.2801Z" fill="#3B53A0"/>
<path d="M13.4976 69.8663C13.1145 69.8663 12.7369 69.6877 12.4974 69.3524C12.1065 68.8021 12.2359 68.0404 12.7876 67.6509L15.0368 66.0606L12.7876 64.4693C12.2359 64.0794 12.1065 63.3172 12.4974 62.7678C12.8905 62.218 13.6535 62.0895 14.2052 62.4785L17.8615 65.0652C18.1847 65.2948 18.3771 65.6647 18.3771 66.061C18.3771 66.456 18.1847 66.8268 17.8615 67.0555L14.2052 69.6426C13.9904 69.7929 13.7431 69.8663 13.4976 69.8663Z" fill="#3B53A0"/>
<path d="M14.4466 53.8339C13.7705 53.8339 13.222 53.2881 13.222 52.6135V8.97898C13.222 8.30521 13.7705 7.75854 14.4466 7.75854C15.1228 7.75854 15.6713 8.30521 15.6713 8.97898V52.6135C15.6713 53.2881 15.1228 53.8339 14.4466 53.8339Z" fill="#3B53A0"/>
</svg>
