<svg width="80" height="80" viewBox="0 0 80 80" fill="none" xmlns="http://www.w3.org/2000/svg">
<path d="M37.7048 44.0351C36.4939 44.0351 35.3141 43.5959 34.3752 42.7505C33.7827 42.2178 33.3104 41.5778 32.9688 40.8496L28.063 30.3587C26.673 27.3868 27.9597 23.8369 30.9332 22.4459C37.0307 19.7807 46.6529 21.6284 53.0214 22.8506L53.2635 22.897C55.7471 23.3739 58.3324 23.0271 60.7468 21.8988L61.9154 21.3523C62.5476 21.0581 63.2975 21.3296 63.5917 21.9598C63.8865 22.5899 63.6144 23.3404 62.9837 23.6356L61.8147 24.1822C58.9161 25.5365 55.7961 25.9499 52.7886 25.3729L52.5461 25.3265C46.4846 24.1621 37.3244 22.4031 31.9721 24.7427C30.288 25.5303 29.5458 27.5773 30.3474 29.2903L35.2537 39.7807C35.4508 40.2008 35.7228 40.5698 36.0619 40.8764C37.1262 41.8323 38.2885 41.4875 38.7396 41.296C39.567 40.944 40.465 40.081 40.5063 38.7185C40.5636 36.8403 39.9406 34.5667 38.656 31.9608C38.3479 31.3363 38.6044 30.5817 39.2289 30.273C39.8534 29.9639 40.609 30.2219 40.9172 30.8454C42.3871 33.8245 43.0968 36.4986 43.0266 38.7948C42.9626 40.895 41.6681 42.7871 39.729 43.6145C39.0704 43.8978 38.3819 44.0351 37.7048 44.0351Z" fill="#3B53A0"/>
<path d="M61.9375 48.8527C61.7301 48.8527 61.52 48.8005 61.3264 48.6932C60.7174 48.3556 60.4986 47.5881 60.8361 46.9796C62.3897 44.1791 65.9004 41.4534 68.5646 40.208C69.1948 39.9133 69.9458 40.1853 70.2405 40.8155C70.5357 41.4457 70.2632 42.1967 69.6325 42.4914C67.391 43.5391 64.3205 45.8973 63.041 48.2034C62.8103 48.6183 62.3799 48.8527 61.9375 48.8527Z" fill="#3B53A0"/>
<path d="M73.5437 45.9551C71.1241 45.9551 68.8542 44.4465 68.0041 42.0392L60.8186 21.6588C59.7424 18.607 61.3492 15.249 64.4005 14.1734L64.7257 14.0583C66.2204 13.5303 67.8286 13.6227 69.2526 14.3195C70.6772 15.0147 71.7383 16.2261 72.2415 17.7296L79.1024 38.225C80.1135 41.2444 78.4924 44.561 75.4895 45.6207C74.8475 45.8467 74.1899 45.9551 73.5437 45.9551ZM66.6813 16.2441C66.3061 16.2441 65.9298 16.3081 65.5654 16.4361L65.2397 16.5512C63.4988 17.1649 62.5832 19.0798 63.1959 20.8196L70.3824 41.2C70.9956 42.9394 72.912 43.8539 74.6513 43.2428C76.3639 42.639 77.2877 40.7468 76.7112 39.025L69.8508 18.5296C69.5639 17.6723 68.9584 16.9822 68.1466 16.5848C67.681 16.3582 67.1825 16.2441 66.6813 16.2441Z" fill="#3B53A0"/>
<path d="M7.51793 50.8072C6.72464 50.8072 5.93032 50.6478 5.19071 50.3278L4.64309 50.0914C1.82296 48.8749 0.414449 45.6506 1.43587 42.753L8.14967 23.7167C8.68903 22.1889 9.8498 20.9399 11.3347 20.2906C12.8191 19.6434 14.5223 19.6377 16.0108 20.2823L16.5584 20.5182C19.3781 21.7368 20.7866 24.9595 19.7652 27.8565L13.0514 46.8929C12.512 48.4212 11.3517 49.6702 9.86684 50.3195C9.12051 50.6447 8.31948 50.8072 7.51793 50.8072ZM13.6831 22.319C13.2294 22.319 12.7757 22.4134 12.3443 22.6018C11.4849 22.977 10.8403 23.6712 10.5275 24.5559L3.81522 43.5928C3.23251 45.2444 4.03561 47.0823 5.64335 47.777L6.192 48.0129C7.0498 48.3845 7.99742 48.383 8.85729 48.0078C9.71716 47.6325 10.3613 46.9383 10.6741 46.0537L17.3879 27.0173C17.9701 25.3652 17.1664 23.5272 15.5587 22.8325L15.0106 22.5961C14.5822 22.4119 14.1326 22.319 13.6831 22.319Z" fill="#3B53A0"/>
<path d="M50.4258 65.5706C49.6542 65.5706 48.8707 65.4023 48.1295 65.0457L43.361 62.7608C42.7339 62.4604 42.4686 61.7068 42.7695 61.0792C43.0704 60.4521 43.8219 60.1848 44.4516 60.4872L49.2191 62.7732C50.6157 63.4421 52.3014 62.8496 52.9724 61.4508C53.5995 60.1435 53.0988 58.5471 51.8338 57.8152C51.3672 57.5453 51.1236 57.0085 51.2279 56.4805C51.3316 55.951 51.7605 55.5468 52.2942 55.4741L52.4165 55.4576C52.6622 55.424 52.9094 55.4643 53.1324 55.5706C53.8101 55.8968 54.5734 55.937 55.2831 55.6877C55.9923 55.4379 56.5621 54.9275 56.8867 54.2493C57.4725 53.0271 57.0993 51.5603 55.9995 50.7628C55.4699 50.3773 55.3223 49.6516 55.6609 49.0901L55.7239 48.9853C56.0532 48.4428 56.7344 48.2281 57.313 48.4847C58.6075 49.0555 60.1399 48.4248 60.8005 47.0472C61.3667 45.8648 61.0906 44.4542 60.144 43.6888C59.968 43.5494 59.824 43.4576 59.6779 43.3879L47.3306 37.4699C45.9835 36.8258 43.5443 37.6676 42.9063 38.9987C42.6049 39.6258 41.8508 39.8916 41.2243 39.5907C40.5961 39.2898 40.3308 38.5363 40.6323 37.9092C41.8772 35.3125 45.8075 33.9443 48.4206 35.1959L60.7664 41.1133C61.0849 41.2656 61.3874 41.456 61.6883 41.695C61.7197 41.7172 61.7492 41.7425 61.7786 41.7693C63.615 43.2888 64.1492 45.8973 63.0761 48.1373C62.3081 49.7388 60.8934 50.7959 59.3264 51.1174C59.841 52.4501 59.8157 53.9752 59.1623 55.3399C58.5461 56.625 57.4658 57.5933 56.1213 58.0661C55.8751 58.1528 55.6263 58.2209 55.375 58.2705C55.9123 59.6124 55.9086 61.1608 55.247 62.5404C54.3308 64.4526 52.4165 65.5706 50.4258 65.5706Z" fill="#3B53A0"/>
<path d="M43.9055 62.8852C43.6991 62.8852 43.4901 62.8346 43.2965 62.7283L35.9752 58.6885C35.3657 58.3525 35.1448 57.5855 35.4808 56.9765C35.8173 56.3649 36.5863 56.1466 37.1938 56.481L44.5151 60.5203C45.1252 60.8568 45.3461 61.6237 45.0095 62.2328C44.7809 62.6498 44.3499 62.8852 43.9055 62.8852Z" fill="#3B53A0"/>
<path d="M52.464 57.985C52.2684 57.985 52.0697 57.9396 51.8844 57.8431L40.1806 51.7714C39.5628 51.4514 39.3218 50.6895 39.6423 50.0723C39.9623 49.4529 40.7236 49.2114 41.3425 49.5334L53.0462 55.6052C53.6645 55.9252 53.905 56.6864 53.5845 57.3048C53.3605 57.7373 52.9197 57.985 52.464 57.985Z" fill="#3B53A0"/>
<path d="M56.8036 50.8981C56.607 50.8981 56.4072 50.8516 56.2214 50.7561L46.0305 45.4374C45.4127 45.1154 45.1737 44.3536 45.4958 43.7358C45.8178 43.1179 46.5791 42.8826 47.1969 43.2016L57.3879 48.5198C58.0052 48.8418 58.2447 49.6031 57.9226 50.2209C57.6965 50.6519 57.2583 50.8981 56.8036 50.8981Z" fill="#3B53A0"/>
<path d="M42.5992 67.5696C42.2477 67.5696 41.8663 67.5231 41.4524 67.4163C37.6981 66.4434 24.3081 60.0496 16.5151 52.6054C15.7641 51.887 15.1757 51.1861 14.608 50.5074C13.6165 49.3244 12.7603 48.3025 11.3172 47.6103C10.6901 47.31 10.4248 46.5569 10.7257 45.9288C11.0271 45.3007 11.7796 45.0343 12.4083 45.3373C14.3432 46.2653 15.4606 47.598 16.5414 48.8883C17.0658 49.5138 17.6077 50.161 18.257 50.7825C25.8188 58.0047 38.9239 64.1559 42.0862 64.976C42.7897 65.1577 43.1386 64.9585 43.3646 64.7644C43.7796 64.4103 43.7951 63.9329 43.7677 63.6785C43.711 63.1572 43.3925 62.6818 42.9383 62.4392L37.7626 59.6749C37.1484 59.3461 36.9161 58.5822 37.2439 57.968C37.5726 57.3533 38.3365 57.121 38.9502 57.4503L44.1264 60.2147C45.3239 60.8537 46.1264 62.0475 46.2746 63.4054C46.4134 64.6787 45.9494 65.8731 45.0033 66.6813C44.4882 67.1211 43.6944 67.5696 42.5992 67.5696Z" fill="#3B53A0"/>
<path d="M26.1961 30.5899C23.7357 30.5899 21.2175 30.1038 19.3548 29.2109L18.0444 28.6059C17.4121 28.3154 17.1365 27.5649 17.4286 26.9327C17.7203 26.2999 18.4692 26.0253 19.1014 26.3169L20.4284 26.9296C22.6013 27.9701 25.9995 28.3469 28.7133 27.8545C29.3992 27.7327 30.0552 28.1848 30.1796 28.8692C30.304 29.5546 29.8498 30.2111 29.1644 30.335C28.2188 30.5074 27.2124 30.5899 26.1961 30.5899Z" fill="#3B53A0"/>
<path d="M16.3923 51.9133C16.2488 51.9133 16.1017 51.888 15.9592 51.8364C15.3053 51.5979 14.9688 50.8738 15.2083 50.2199L20.4031 36.0062C20.6421 35.3517 21.3677 35.0163 22.0201 35.2547C22.6741 35.4932 23.0106 36.2168 22.7711 36.8707L17.5763 51.0849C17.3894 51.5959 16.9063 51.9133 16.3923 51.9133Z" fill="#3B53A0"/>
<path d="M60.0145 36.3169C59.4988 36.3169 59.0147 35.9979 58.8289 35.4849L54.9538 24.7716C54.7169 24.1166 55.0555 23.3946 55.7105 23.1572C56.3659 22.9197 57.088 23.2594 57.3249 23.9148L61.2 34.6281C61.4369 35.2821 61.0983 36.0052 60.4434 36.2421C60.3014 36.2937 60.1564 36.3169 60.0145 36.3169Z" fill="#3B53A0"/>
</svg>
