<?xml version="1.0" encoding="utf-8"?>
<!-- Generator: Adobe Illustrator 16.0.0, SVG Export Plug-In . SVG Version: 6.00 Build 0)  -->
<!DOCTYPE svg PUBLIC "-//W3C//DTD SVG 1.1//EN" "http://www.w3.org/Graphics/SVG/1.1/DTD/svg11.dtd">
<svg version="1.1" id="Layer_1" xmlns="http://www.w3.org/2000/svg" xmlns:xlink="http://www.w3.org/1999/xlink" x="0px" y="0px"
	 width="94px" height="94px" viewBox="120.333 0 94 94" enable-background="new 120.333 0 94 94" xml:space="preserve">
<path fill="#2576A2" d="M158.646,69.116c0,0-23.229-9.104-21.128-35.602c2.101-26.498,21.361-31.167,30.816-31.167
	c9.456,0,28.949,7.587,28.949,36.77c0,29.183-36.419,35.367-36.419,35.367s17.743-1.399,24.28,11.091
	c0.934,2.335,5.604,6.42,12.14,6.069c0,0-14.124,1.984-22.879-3.386c-8.755-5.37-3.618-12.957-17.744-12.84
	c0,0,10.039-2.569,15.41-5.487c5.369-2.918,11.673-6.886,11.206-27.896c-0.468-21.012,1.167-38.638-15.059-38.638
	c-16.226,0-16.459,13.073-16.459,35.368S155.494,65.846,158.646,69.116"/>
</svg>
