<svg width="79" height="82" viewBox="0 0 79 82" fill="none" xmlns="http://www.w3.org/2000/svg">
<path d="M70.989 74.7048H8.19254C7.54609 74.7048 7.02289 74.1759 7.02289 73.524V68.1083C7.02289 67.4564 7.54609 66.928 8.19254 66.928H70.9885C71.6349 66.928 72.1586 67.4564 72.1586 68.1083V73.524C72.1591 74.1759 71.6354 74.7048 70.989 74.7048ZM9.36219 72.3441H69.8193V69.29H9.36219V72.3441Z" fill="#3B53A0"/>
<path d="M73.4208 74.7043H5.76203C5.11558 74.7043 4.59238 74.1763 4.59238 73.5235C4.59238 72.872 5.11558 72.3431 5.76203 72.3431H73.4208C74.0672 72.3431 74.5904 72.872 74.5904 73.5235C74.59 74.1763 74.0668 74.7043 73.4208 74.7043Z" fill="#3B53A0"/>
<path d="M65.4431 23.8939H13.7392C13.1989 23.8939 12.7294 23.5208 12.6021 22.9915C12.4748 22.4621 12.7226 21.9136 13.2025 21.664L39.0549 8.20505C39.3907 8.03012 39.7916 8.03012 40.1279 8.20505L65.9794 21.664C66.4593 21.9136 66.7071 22.4621 66.5803 22.9915C66.4525 23.5208 65.983 23.8939 65.4431 23.8939ZM18.5573 21.5328H60.6241L39.5912 10.5821L18.5573 21.5328Z" fill="#3B53A0"/>
<path d="M72.1572 34.5899H7.02558C6.37959 34.5899 5.85638 34.0619 5.85638 33.4091V27.9939C5.85638 27.342 6.37959 26.8136 7.02558 26.8136H72.1572C72.8028 26.8136 73.3269 27.342 73.3269 27.9939V33.4091C73.3269 34.0619 72.8023 34.5899 72.1572 34.5899ZM8.19524 32.2288H70.9872V29.1743H8.19524V32.2288Z" fill="#3B53A0"/>
<path d="M69.4437 29.1747H9.73868C9.09269 29.1747 8.56903 28.6458 8.56903 27.9944V26.3389C8.56903 23.6894 10.7052 21.5323 13.3312 21.5323H65.8503C68.4768 21.5323 70.6134 23.6889 70.6134 26.3389V27.9944C70.6134 28.6458 70.0897 29.1747 69.4437 29.1747ZM10.9088 26.8131H68.2741V26.3389C68.2741 24.99 67.1866 23.8939 65.8503 23.8939H13.3312C11.9949 23.8939 10.9088 24.99 10.9088 26.3389V26.8131Z" fill="#3B53A0"/>
<path d="M23.3185 40.0871H11.6834C11.1891 40.0871 10.7481 39.7732 10.5828 39.3036L8.63763 33.8064C8.50987 33.4451 8.56404 33.0433 8.78299 32.729C9.00193 32.4156 9.35811 32.2292 9.73866 32.2292H25.2642C25.6447 32.2292 26.0018 32.4156 26.2199 32.729C26.4393 33.0433 26.493 33.4451 26.3652 33.8064L24.4196 39.3036C24.2534 39.7732 23.8128 40.0871 23.3185 40.0871ZM12.5077 37.726H22.4942L23.6047 34.5895H11.3986L12.5077 37.726Z" fill="#3B53A0"/>
<path d="M25.2642 69.29H9.73866C9.35811 69.29 9.00193 69.1028 8.78299 68.7894C8.56404 68.4755 8.50987 68.0741 8.63763 67.7124L10.5824 62.2148C10.7481 61.7451 11.1896 61.4321 11.6834 61.4321H23.3185C23.8128 61.4321 24.253 61.7451 24.4196 62.2148L26.3652 67.7124C26.493 68.0741 26.4393 68.4755 26.2199 68.7894C26.0018 69.1023 25.6447 69.29 25.2642 69.29ZM11.3986 66.9284H23.6047L22.4942 63.7919H12.5077L11.3986 66.9284Z" fill="#3B53A0"/>
<path d="M23.3185 63.7919H11.6834C11.0374 63.7919 10.5138 63.2639 10.5138 62.612V38.9063C10.5138 38.2544 11.0374 37.726 11.6834 37.726H23.3185C23.9645 37.726 24.4882 38.2544 24.4882 38.9063V62.612C24.4882 63.2639 23.9645 63.7919 23.3185 63.7919ZM12.8535 61.4321H22.1493V40.0871H12.8535V61.4321Z" fill="#3B53A0"/>
<path d="M45.4087 40.0871H33.7736C33.2789 40.0871 32.8392 39.7732 32.6721 39.3036L30.7269 33.8064C30.5992 33.4451 30.6529 33.0433 30.8718 32.729C31.0899 32.4156 31.447 32.2292 31.828 32.2292H47.353C47.7336 32.2292 48.0898 32.4156 48.3092 32.729C48.5281 33.0433 48.5818 33.4451 48.4541 33.8064L46.5093 39.3036C46.3446 39.7732 45.9035 40.0871 45.4087 40.0871ZM34.5984 37.726H44.5849L45.694 34.5895H33.4879L34.5984 37.726Z" fill="#3B53A0"/>
<path d="M47.3531 69.29H31.8284C31.4474 69.29 31.0903 69.1028 30.8723 68.7894C30.6534 68.4755 30.5996 68.0741 30.7274 67.7124L32.673 62.2148C32.8392 61.7451 33.2798 61.4321 33.7741 61.4321H45.4087C45.9035 61.4321 46.3446 61.7451 46.5098 62.2148L48.4545 67.7124C48.5823 68.0741 48.5286 68.4755 48.3096 68.7894C48.0898 69.1023 47.7336 69.29 47.3531 69.29ZM33.4879 66.9284H45.6941L44.5849 63.7919H34.5984L33.4879 66.9284Z" fill="#3B53A0"/>
<path d="M45.4087 63.7919H33.7732C33.1272 63.7919 32.604 63.2639 32.604 62.612V38.9063C32.604 38.2544 33.1272 37.726 33.7732 37.726H45.4083C46.0552 37.726 46.5784 38.2544 46.5784 38.9063V62.612C46.5788 63.2639 46.0552 63.7919 45.4087 63.7919ZM34.9433 61.4321H44.2391V40.0871H34.9433V61.4321Z" fill="#3B53A0"/>
<path d="M67.4989 40.0871H55.8634C55.3686 40.0871 54.9276 39.7732 54.7614 39.3036L52.8171 33.8064C52.6894 33.4451 52.7435 33.0433 52.9625 32.729C53.1819 32.4156 53.5381 32.2292 53.9182 32.2292H69.4437C69.8238 32.2292 70.1804 32.4156 70.3994 32.729C70.6188 33.0433 70.672 33.4451 70.5447 33.8064L68.5995 39.3036C68.4348 39.7732 67.9933 40.0871 67.4989 40.0871ZM56.6872 37.726H66.6746L67.7842 34.5895H55.5781L56.6872 37.726Z" fill="#3B53A0"/>
<path d="M69.4437 69.29H53.9182C53.5381 69.29 53.1819 69.1028 52.9625 68.7894C52.7435 68.4755 52.6894 68.0741 52.8171 67.7124L54.7614 62.2148C54.9276 61.7451 55.3691 61.4321 55.8634 61.4321H67.4989C67.9933 61.4321 68.4339 61.7451 68.5995 62.2148L70.5447 67.7124C70.6729 68.0741 70.6188 68.4755 70.3994 68.7894C70.1804 69.1023 69.8238 69.29 69.4437 69.29ZM55.5781 66.9284H67.7842L66.6746 63.7919H56.6872L55.5781 66.9284Z" fill="#3B53A0"/>
<path d="M67.4989 63.7919H55.8634C55.2169 63.7919 54.6933 63.2639 54.6933 62.612V38.9063C54.6933 38.2544 55.2169 37.726 55.8634 37.726H67.4989C68.1449 37.726 68.6686 38.2544 68.6686 38.9063V62.612C68.6686 63.2639 68.1449 63.7919 67.4989 63.7919ZM57.033 61.4321H66.3293V40.0871H57.033V61.4321Z" fill="#3B53A0"/>
</svg>
