<svg width="78" height="81" viewBox="0 0 78 81" fill="none" xmlns="http://www.w3.org/2000/svg">
<path d="M55.2855 73.8648H22.6521C22.0655 73.8648 21.5891 73.3846 21.5891 72.7915V13.1935C21.5891 12.6009 22.0651 12.1207 22.6521 12.1207H55.2855C55.8716 12.1207 56.3481 12.6004 56.3481 13.1935V72.7911C56.3481 73.3842 55.8721 73.8648 55.2855 73.8648ZM23.7147 71.7192H54.2229V14.2659H23.7147V71.7192Z" fill="#3B53A0"/>
<path d="M72.5324 69.0466H55.2855C54.6985 69.0466 54.2229 68.566 54.2229 67.9734V30.7336C54.2229 30.1419 54.6981 29.6613 55.2855 29.6613H72.5324C73.119 29.6613 73.595 30.1414 73.595 30.7336V67.9734C73.595 68.5656 73.1194 69.0466 72.5324 69.0466ZM56.3481 66.9006H71.4703V31.8064H56.3481V66.9006Z" fill="#3B53A0"/>
<path d="M22.6521 69.0466H5.40518C4.81862 69.0466 4.3426 68.566 4.3426 67.9734V30.7336C4.3426 30.1419 4.81817 29.6613 5.40518 29.6613H22.6521C23.2387 29.6613 23.7147 30.1414 23.7147 30.7336V67.9734C23.7147 68.5656 23.2391 69.0466 22.6521 69.0466ZM6.46776 66.9006H21.5904V31.8064H6.46776V66.9006Z" fill="#3B53A0"/>
<path d="M41.1189 29.8102H36.8196C36.233 29.8102 35.7565 29.3296 35.7565 28.7374V26.2331H33.277C32.69 26.2331 32.2144 25.7534 32.2144 25.1608V20.8201C32.2144 20.2283 32.6896 19.7473 33.277 19.7473H35.7565V17.2439C35.7565 16.6508 36.2326 16.1711 36.8196 16.1711H41.1189C41.7055 16.1711 42.1811 16.6504 42.1811 17.2439V19.7473H44.6606C45.2467 19.7473 45.7232 20.2279 45.7232 20.8201V25.1608C45.7232 25.753 45.2471 26.2331 44.6606 26.2331H42.1811V28.7374C42.1811 29.3296 41.7055 29.8102 41.1189 29.8102ZM37.8817 27.6646H40.0563V25.1612C40.0563 24.5686 40.5315 24.0884 41.1189 24.0884H43.5984V21.8933H41.1189C40.5319 21.8933 40.0563 21.4127 40.0563 20.8201V18.3167H37.8817V20.8201C37.8817 21.4123 37.4061 21.8933 36.8191 21.8933H34.3387V24.0884H36.8191C37.4057 24.0884 37.8817 24.5681 37.8817 25.1612V27.6646Z" fill="#3B53A0"/>
<path d="M56.9948 14.2659H20.9423C20.3558 14.2659 19.8802 13.7862 19.8802 13.1935V8.43791C19.8802 7.84616 20.3553 7.36511 20.9423 7.36511H56.9948C57.5814 7.36511 58.0574 7.84571 58.0574 8.43791V13.1935C58.0574 13.7862 57.5814 14.2659 56.9948 14.2659ZM22.0049 12.1212H55.9322V9.51071H22.0049V12.1212Z" fill="#3B53A0"/>
<path d="M47.4686 73.8647H30.469C29.8825 73.8647 29.4064 73.3846 29.4064 72.7915V54.8477C29.4064 54.256 29.882 53.7754 30.469 53.7754H47.4686C48.0551 53.7754 48.5312 54.2555 48.5312 54.8477V72.7915C48.5312 73.3841 48.0551 73.8647 47.4686 73.8647ZM31.5316 71.7191H46.4055V55.921H31.5316V71.7191Z" fill="#3B53A0"/>
<path d="M38.9688 62.5C38.3822 62.5 37.9062 62.0207 37.9062 61.4272V54.8477C37.9062 54.256 38.3818 53.7754 38.9688 53.7754C39.5558 53.7754 40.0314 54.2555 40.0314 54.8477V61.4272C40.0309 62.0203 39.5554 62.5 38.9688 62.5Z" fill="#3B53A0"/>
<path d="M38.9688 73.8643C38.3822 73.8643 37.9062 73.3851 37.9062 72.7915V66.0753C37.9062 65.4831 38.3818 65.0029 38.9688 65.0029C39.5558 65.0029 40.0314 65.4826 40.0314 66.0753V72.7915C40.0309 73.3846 39.5554 73.8643 38.9688 73.8643Z" fill="#3B53A0"/>
<path d="M18.5618 45.1948H9.49549C8.90893 45.1948 8.43291 44.7142 8.43291 44.1216V37.9008C8.43291 37.3081 8.90848 36.8275 9.49549 36.8275H18.5618C19.1483 36.8275 19.6243 37.3077 19.6243 37.9008V44.1216C19.6239 44.7138 19.1483 45.1948 18.5618 45.1948ZM10.5581 43.0488H17.4992V38.9727H10.5581V43.0488Z" fill="#3B53A0"/>
<path d="M18.5618 58.0662H9.49549C8.90893 58.0662 8.43291 57.5856 8.43291 56.9934V50.7717C8.43291 50.1799 8.90848 49.6993 9.49549 49.6993H18.5618C19.1483 49.6993 19.6243 50.1795 19.6243 50.7717V56.9934C19.6239 57.5856 19.1483 58.0662 18.5618 58.0662ZM10.5581 55.921H17.4992V51.8445H10.5581V55.921Z" fill="#3B53A0"/>
<path d="M68.4421 45.1948H59.3758C58.7893 45.1948 58.3132 44.7142 58.3132 44.1216V37.9008C58.3132 37.3081 58.7888 36.8275 59.3758 36.8275H68.4421C69.0287 36.8275 69.5047 37.3077 69.5047 37.9008V44.1216C69.5042 44.7138 69.0287 45.1948 68.4421 45.1948ZM60.4384 43.0488H67.3795V38.9727H60.4384V43.0488Z" fill="#3B53A0"/>
<path d="M68.4421 58.0662H59.3758C58.7893 58.0662 58.3132 57.5856 58.3132 56.9934V50.7717C58.3132 50.1799 58.7888 49.6993 59.3758 49.6993H68.4421C69.0287 49.6993 69.5047 50.1795 69.5047 50.7717V56.9934C69.5042 57.5856 69.0287 58.0662 68.4421 58.0662ZM60.4384 55.921H67.3795V51.8445H60.4384V55.921Z" fill="#3B53A0"/>
<path d="M31.8409 50.9868H26.5289C25.9424 50.9868 25.4663 50.5067 25.4663 49.914V43.8359C25.4663 43.2437 25.9419 42.7631 26.5289 42.7631H31.8409C32.428 42.7631 32.9035 43.2432 32.9035 43.8359V49.914C32.9031 50.5062 32.428 50.9868 31.8409 50.9868ZM27.5911 48.8412H30.7775V44.9087H27.5911V48.8412Z" fill="#3B53A0"/>
<path d="M41.6248 50.9868H36.3128C35.7262 50.9868 35.2502 50.5067 35.2502 49.914V43.8359C35.2502 43.2437 35.7258 42.7631 36.3128 42.7631H41.6248C42.2118 42.7631 42.6869 43.2432 42.6869 43.8359V49.914C42.6865 50.5062 42.2118 50.9868 41.6248 50.9868ZM37.3749 48.8412H40.5622V44.9087H37.3749V48.8412Z" fill="#3B53A0"/>
<path d="M51.4091 50.9868H46.0967C45.5101 50.9868 45.0341 50.5067 45.0341 49.914V43.8359C45.0341 43.2437 45.5097 42.7631 46.0967 42.7631H51.4091C51.9957 42.7631 52.4713 43.2432 52.4713 43.8359V49.914C52.4713 50.5062 51.9957 50.9868 51.4091 50.9868ZM47.1593 48.8412H50.3466V44.9087H47.1593V48.8412Z" fill="#3B53A0"/>
<path d="M31.8409 40.6183H26.5289C25.9424 40.6183 25.4663 40.1382 25.4663 39.5451V33.4665C25.4663 32.8743 25.9419 32.3937 26.5289 32.3937H31.8409C32.428 32.3937 32.9035 32.8738 32.9035 33.4665V39.5451C32.9031 40.1377 32.428 40.6183 31.8409 40.6183ZM27.5911 38.4723H30.7775V34.5388H27.5911V38.4723Z" fill="#3B53A0"/>
<path d="M41.6248 40.6183H36.3128C35.7262 40.6183 35.2502 40.1382 35.2502 39.5451V33.4665C35.2502 32.8743 35.7258 32.3937 36.3128 32.3937H41.6248C42.2118 32.3937 42.6869 32.8738 42.6869 33.4665V39.5451C42.6865 40.1377 42.2118 40.6183 41.6248 40.6183ZM37.3749 38.4723H40.5622V34.5388H37.3749V38.4723Z" fill="#3B53A0"/>
<path d="M51.4091 40.6183H46.0967C45.5101 40.6183 45.0341 40.1382 45.0341 39.5451V33.4665C45.0341 32.8743 45.5097 32.3937 46.0967 32.3937H51.4091C51.9957 32.3937 52.4713 32.8738 52.4713 33.4665V39.5451C52.4713 40.1377 51.9957 40.6183 51.4091 40.6183ZM47.1593 38.4723H50.3466V34.5388H47.1593V38.4723Z" fill="#3B53A0"/>
<path d="M65.6145 73.8644H12.3222C11.7357 73.8644 11.2596 73.3851 11.2596 72.7916C11.2596 72.1998 11.7352 71.7192 12.3222 71.7192H65.614C66.201 71.7192 66.6766 72.1994 66.6766 72.7916C66.6771 73.3847 66.2015 73.8644 65.6145 73.8644Z" fill="#3B53A0"/>
</svg>
