<svg width="80" height="80" viewBox="0 0 80 80" fill="none" xmlns="http://www.w3.org/2000/svg">
<path d="M9.03937 79.1245C6.27585 79.1245 4.02689 76.8762 4.02689 74.1114V52.8102C4.02689 50.0467 6.27585 47.7978 9.03937 47.7978C11.8035 47.7978 14.0525 50.0467 14.0525 52.8102V74.1114C14.0525 76.8762 11.8029 79.1245 9.03937 79.1245ZM9.03937 50.176C7.58721 50.176 6.40577 51.3574 6.40577 52.8096V74.1107C6.40577 75.5642 7.58721 76.745 9.03937 76.745C10.4915 76.745 11.6736 75.5635 11.6736 74.1107V52.8102C11.673 51.3574 10.4915 50.176 9.03937 50.176Z" fill="#3B53A0"/>
<path d="M53.7165 51.7401C57.4074 51.7401 60.409 48.9024 60.409 45.4163C60.409 41.9289 57.4074 39.0912 53.7165 39.0912C51.3376 39.0912 49.4022 37.3222 49.4022 35.1462C49.4022 32.9715 51.3376 31.2019 53.7165 31.2019C56.0954 31.2019 58.0301 32.9715 58.0301 35.1462C58.0301 35.8041 58.5619 36.3366 59.2192 36.3366C59.8758 36.3366 60.4083 35.8041 60.4083 35.1462C60.4083 31.6595 57.4067 28.8224 53.7158 28.8224C50.0243 28.8224 47.0221 31.6595 47.0221 35.1462C47.0221 38.6336 50.0243 41.4707 53.7158 41.4707C56.0947 41.4707 58.0294 43.2403 58.0294 45.4157C58.0294 47.5904 56.0947 49.3593 53.7158 49.3593C51.337 49.3593 49.4016 47.5904 49.4016 45.4157C49.4016 44.7584 48.8691 44.2259 48.2118 44.2259C47.5552 44.2259 47.0227 44.7584 47.0227 45.4157C47.0227 48.9024 50.025 51.7401 53.7165 51.7401Z" fill="#3B53A0"/>
<path d="M53.7165 53.8163C54.3731 53.8163 54.9056 53.2845 54.9056 52.6278V27.936C54.9056 27.2787 54.3731 26.7462 53.7165 26.7462C53.0592 26.7462 52.5274 27.2787 52.5274 27.936V52.6272C52.5267 53.2845 53.0586 53.8163 53.7165 53.8163Z" fill="#3B53A0"/>
<path d="M39.8099 46.775C39.3299 46.775 38.8787 46.4832 38.6976 46.0096C38 44.1811 37.6467 42.2547 37.6467 40.2816C37.6467 34.8723 40.3462 29.8586 44.8672 26.8691C45.4138 26.5082 46.153 26.6573 46.5158 27.2064C46.8774 27.7536 46.727 28.4928 46.1798 28.855C42.3264 31.4016 40.0256 35.673 40.0256 40.2816C40.0256 41.9635 40.3277 43.6045 40.921 45.161C41.1546 45.7747 40.8474 46.4621 40.2336 46.6963C40.0941 46.7494 39.9507 46.775 39.8099 46.775Z" fill="#3B53A0"/>
<path d="M61.9085 53.8912C61.5219 53.8912 61.1443 53.7037 60.9146 53.3574C60.5523 52.8096 60.7034 52.0704 61.2512 51.7094C65.104 49.1616 67.4042 44.8902 67.4042 40.2816C67.4042 35.6729 65.1034 31.4016 61.2512 28.855C60.7034 28.4921 60.5517 27.7542 60.9146 27.2064C61.2781 26.6579 62.0147 26.5081 62.5632 26.8691C67.0842 29.8585 69.7843 34.8717 69.7843 40.2816C69.7843 45.6909 67.0842 50.7046 62.5632 53.6941C62.361 53.8265 62.1344 53.8912 61.9085 53.8912Z" fill="#3B53A0"/>
<path d="M47.4586 74.1632H12.8627C12.2061 74.1632 11.6736 73.6307 11.6736 72.9734V54.8915C11.6736 54.4397 11.929 54.0275 12.3334 53.8259L16.8275 51.593C22.5914 48.7302 28.9971 47.7498 35.353 48.7571L47.5808 50.6938C50.2387 51.207 51.785 53.1622 51.8624 56.0666L51.8637 56.5216C51.8464 57.0701 51.785 57.417 51.7786 57.4541C51.8003 57.5072 51.8125 57.673 51.8253 57.7293L52.0544 58.6221C52.6182 58.6746 53.1744 58.7008 53.7152 58.7008C60.537 58.7008 66.7693 54.9542 69.9808 48.9229C70.1536 48.5984 70.4557 48.3866 70.7898 48.3174C70.6099 47.9763 70.599 47.5526 70.8 47.1878C71.1187 46.6131 71.8413 46.4032 72.4166 46.7213C72.5446 46.791 72.6982 46.8659 72.8685 46.9478C74.0352 47.5136 76.2074 48.567 76.201 50.9683C76.1939 53.4669 74.6125 55.7235 73.6698 56.8461C72.887 57.7786 72.0365 58.5357 71.2134 59.2672C70.9658 59.4886 70.7187 59.7088 70.473 59.9328C69.6634 60.6765 68.8934 61.3062 68.1216 61.8598L53.7523 72.144C51.9059 73.465 49.7299 74.1632 47.4586 74.1632ZM14.0525 71.7837H47.4592C49.2307 71.7837 50.928 71.2384 52.368 70.2086L66.7366 59.9245C67.4304 59.4278 68.1267 58.857 68.8653 58.1786C69.1187 57.9462 69.3754 57.7171 69.6326 57.4886C70.4262 56.7821 71.1763 56.1152 71.8477 55.3158C73.0989 53.824 73.8189 52.2374 73.8227 50.96C73.824 50.2202 73.1187 49.7389 72.2029 49.2717C72.2483 49.5251 72.2131 49.7946 72.0819 50.039C68.457 56.848 61.4195 61.0778 53.7165 61.0778C52.8211 61.0778 51.8899 61.0144 50.9491 60.889C50.4678 60.825 50.0742 60.4755 49.9533 60.0045L49.5398 58.3859C49.376 57.9443 49.344 57.4643 49.4464 56.9907C49.4451 56.9914 49.4765 56.7827 49.4861 56.4819L49.4854 56.0973C49.4144 53.4694 47.7248 53.1424 47.1699 53.0349L34.9818 51.104C29.1149 50.1773 23.2058 51.0803 17.8874 53.7222L14.0538 55.6282V71.7837H14.0525Z" fill="#3B53A0"/>
<path d="M53.7152 61.0797C53.2666 61.0797 52.8211 61.0618 52.3802 61.0323C52.375 61.0323 52.2752 61.0247 52.2714 61.024C51.7901 60.9869 51.3664 60.9459 50.9491 60.8909C50.4461 60.8237 50.0403 60.4448 49.9398 59.9456L49.632 58.4179C49.511 57.8157 49.4605 57.168 49.4854 56.4928V56.0986C49.4138 53.4701 47.7242 53.1431 47.1693 53.0362L36.6125 51.3651C36.2611 51.3088 35.9533 51.0989 35.7728 50.7923C33.6314 47.143 32.6643 42.9658 32.9779 38.7155C33.7344 28.4218 42.0749 20.1728 52.3789 19.5264C58.1888 19.1622 63.7229 21.1482 67.9514 25.12C72.1216 29.0362 74.5126 34.5626 74.5126 40.2816C74.5126 43.0221 73.984 45.6922 72.9414 48.215C72.919 48.2688 72.1075 49.9891 72.1075 49.9891C71.8637 50.4474 71.6352 50.8467 71.3926 51.2358C71.145 51.632 70.9075 51.984 70.6624 52.3296L70.5734 52.4538C70.0634 53.159 69.5008 53.8419 68.9018 54.4832C68.8979 54.487 68.8288 54.5594 68.825 54.5632C68.5126 54.8941 68.2285 55.1744 67.9379 55.4483L67.0374 54.6624L67.8464 55.5347C67.5213 55.8362 67.1878 56.1286 66.8442 56.4077C66.4851 56.6976 66.1632 56.9414 65.8336 57.1776L65.6282 57.3242C65.2941 57.5578 64.9478 57.7888 64.5946 58.0058C64.2016 58.2471 63.8246 58.4595 63.4445 58.6618L63.2998 58.736C63.2986 58.7366 63.2147 58.7789 63.2128 58.7802C62.9011 58.9402 62.585 59.0918 62.2637 59.2378L62.007 59.3542C61.6166 59.5245 61.2205 59.6858 60.816 59.8323C60.8096 59.8342 60.7309 59.8605 60.7245 59.8624C60.3546 59.9949 59.9821 60.1152 59.6058 60.2253L59.2122 60.3366C58.9344 60.4134 58.6483 60.4819 58.3629 60.5479L58.0006 60.633C57.5891 60.7187 57.1661 60.793 56.7398 60.8557L56.4333 60.8947C56.0947 60.9395 55.753 60.9754 55.4093 61.0035L55.0349 61.0311C54.601 61.0598 54.1606 61.0797 53.7152 61.0797ZM52.0992 58.6227C52.1958 58.6317 52.295 58.6387 52.3923 58.6464L52.4589 59.8451L52.5389 58.6586C53.3165 58.7104 54.1114 58.7072 54.889 58.6586L55.1411 58.6394C55.5232 58.6093 55.824 58.5773 56.1235 58.5382L56.3949 58.5037C56.7712 58.4493 57.1456 58.3834 57.5162 58.3059L57.817 58.2355C58.073 58.1747 58.3296 58.1146 58.5837 58.0442L58.9306 57.9462C59.2653 57.8483 59.5955 57.7421 59.9213 57.6256C60.3616 57.4682 60.7117 57.3261 61.0573 57.1744L61.209 57.1072C61.5686 56.9434 61.849 56.8083 62.1267 56.6669L62.3277 56.5632C62.6643 56.3853 62.999 56.1965 63.3254 55.9968C63.6602 55.7894 63.9667 55.5853 64.2675 55.3747L64.4448 55.2486C64.7366 55.0381 65.0227 54.8224 65.3018 54.5958C65.6454 54.3168 65.9411 54.0595 66.2298 53.792L67.1238 54.583L66.3085 53.7165C66.5664 53.4739 66.8173 53.2237 67.0611 52.9677L68.0333 53.6723L67.1648 52.8589C67.696 52.2906 68.1958 51.6851 68.6483 51.0579C68.6483 51.0579 68.7219 50.9542 68.7232 50.9542C68.9421 50.6458 69.152 50.3341 69.3504 50.0154C69.5866 49.6352 69.7907 49.2819 69.9814 48.9222L70.7539 47.2819C71.6698 45.056 72.1331 42.7008 72.1331 40.2822C72.1331 35.143 70.0691 30.3744 66.3226 26.8544C62.5779 23.3376 57.6851 21.5776 52.5267 21.9015C43.4054 22.4736 36.0198 29.7766 35.3491 38.8909C35.0861 42.4717 35.8458 45.991 37.5494 49.1046L47.5795 50.6931C50.2374 51.2064 51.7837 53.1629 51.8618 56.0666L51.8624 56.5216C51.8624 56.5645 51.8598 56.6221 51.8547 56.6656C51.8438 57.0662 51.8778 57.529 51.9629 57.9482L52.0992 58.6227Z" fill="#3B53A0"/>
<path d="M51.1053 60.8998H38.1926C37.5354 60.8998 37.0029 60.368 37.0029 59.7114C37.0029 59.0534 37.5354 58.5216 38.1926 58.5216H51.1046C51.7613 58.5216 52.2944 59.0534 52.2944 59.7114C52.295 60.368 51.7619 60.8998 51.1053 60.8998Z" fill="#3B53A0"/>
<path d="M8.04929 74.3002H5.21665C4.55937 74.3002 4.02689 73.7683 4.02689 73.1117C4.02689 72.4538 4.55937 71.9219 5.21665 71.9219H8.04929C8.70593 71.9219 9.23841 72.4538 9.23841 73.1117C9.23841 73.7683 8.70593 74.3002 8.04929 74.3002Z" fill="#3B53A0"/>
<path d="M8.04929 67.8675H5.21665C4.55937 67.8675 4.02689 67.335 4.02689 66.6778C4.02689 66.0205 4.55937 65.488 5.21665 65.488H8.04929C8.70593 65.488 9.23841 66.0205 9.23841 66.6778C9.23841 67.335 8.70593 67.8675 8.04929 67.8675Z" fill="#3B53A0"/>
<path d="M8.04929 61.4336H5.21665C4.55937 61.4336 4.02689 60.9018 4.02689 60.2445C4.02689 59.5872 4.55937 59.0554 5.21665 59.0554H8.04929C8.70593 59.0554 9.23841 59.5872 9.23841 60.2445C9.23841 60.9018 8.70593 61.4336 8.04929 61.4336Z" fill="#3B53A0"/>
<path d="M8.04929 55.001H5.21665C4.55937 55.001 4.02689 54.4678 4.02689 53.8112C4.02689 53.1539 4.55937 52.6214 5.21665 52.6214H8.04929C8.70593 52.6214 9.23841 53.1539 9.23841 53.8112C9.23841 54.4678 8.70593 55.001 8.04929 55.001Z" fill="#3B53A0"/>
<path d="M34.1082 69.4227H17.9744C17.3171 69.4227 16.7846 68.8903 16.7846 68.233C16.7846 67.5757 17.3171 67.0432 17.9744 67.0432H34.1082C34.7648 67.0432 35.2979 67.5757 35.2979 68.233C35.2979 68.8903 34.7648 69.4227 34.1082 69.4227Z" fill="#3B53A0"/>
<path d="M53.7158 14.6995C53.0592 14.6995 52.5267 14.167 52.5267 13.5104V2.02048C52.5267 1.3632 53.0592 0.830719 53.7158 0.830719C54.3725 0.830719 54.905 1.3632 54.905 2.02048V13.5104C54.905 14.1677 54.3725 14.6995 53.7158 14.6995Z" fill="#3B53A0"/>
<path d="M64.2874 17.872C63.6301 17.872 63.0976 17.3395 63.0976 16.6829V5.19232C63.0976 4.53568 63.6301 4.0032 64.2874 4.0032C64.9434 4.0032 65.4758 4.53568 65.4758 5.19232V16.6829C65.4765 17.3402 64.944 17.872 64.2874 17.872Z" fill="#3B53A0"/>
<path d="M43.1437 17.872C42.4864 17.872 41.9539 17.3395 41.9539 16.6829V5.19232C41.9539 4.53568 42.4864 4.0032 43.1437 4.0032C43.7997 4.0032 44.3334 4.53568 44.3334 5.19232V16.6829C44.3334 17.3402 43.8003 17.872 43.1437 17.872Z" fill="#3B53A0"/>
</svg>
