<svg width="80" height="82" viewBox="0 0 80 82" fill="none" xmlns="http://www.w3.org/2000/svg">
<path d="M17.7029 40.5872C17.8537 28.4344 27.3093 18.5575 40.0389 18.2122C52.7602 18.449 62.555 28.2116 62.5476 40.6136C62.5403 53.176 52.5851 62.8502 40.3287 62.9409C27.5995 63.0343 17.819 52.9314 17.7029 40.5872ZM39.0267 50.706V41.7206H33.4331C33.4331 41.9389 33.424 42.1265 33.4345 42.3133C33.4962 43.4385 33.5186 44.5688 33.6384 45.6885C33.7911 47.1181 34.0192 48.5403 34.2299 49.963C34.2446 50.0619 34.3721 50.2122 34.4608 50.2218C35.957 50.3917 37.4551 50.5425 39.0267 50.706ZM46.8695 41.7161H41.2672V50.7024C42.7625 50.5484 44.2199 50.3885 45.68 50.2559C45.9749 50.2295 46.0576 50.0997 46.0891 49.8437C46.3045 48.0679 46.5508 46.2958 46.7383 44.5168C46.8347 43.5984 46.8279 42.6691 46.8695 41.7161ZM39.0327 39.477V30.601C38.9381 30.5919 38.864 30.5737 38.7922 30.5809C37.3797 30.7044 35.968 30.8356 34.5545 30.9518C34.3214 30.9709 34.2482 31.0584 34.2057 31.2861C33.8007 33.4555 33.5739 35.6435 33.477 37.8457C33.4537 38.3801 33.4734 38.9153 33.4734 39.4766L39.0327 39.477ZM41.2622 30.5591V39.4825H46.8169C46.8293 39.4183 46.8462 39.3718 46.8457 39.3244C46.8151 36.6025 46.5522 33.9029 46.0558 31.2265C46.037 31.124 45.8798 30.9887 45.7719 30.9723C45.0272 30.8616 44.2798 30.7572 43.5301 30.6907C42.7845 30.6238 42.0338 30.6019 41.2622 30.5591ZM48.3561 49.7311C48.4411 49.7207 48.5134 49.7188 48.5824 49.7024C50.432 49.2683 52.2309 48.6843 53.9497 47.8729C54.0736 47.8142 54.2016 47.652 54.229 47.5185C54.4923 46.2329 54.7575 44.9473 54.9733 43.6536C55.0788 43.0194 55.0816 42.3703 55.1323 41.722H49.0848C48.997 43.08 48.9385 44.4066 48.8178 45.7277C48.6967 47.0566 48.5143 48.38 48.3561 49.7311ZM31.8647 49.738C31.6197 47.0488 31.3774 44.3897 31.1328 41.7093H25.1534C25.1854 42.1794 25.1785 42.6313 25.2526 43.07C25.5058 44.5711 25.7847 46.0676 26.0649 47.5631C26.0841 47.6675 26.1765 47.7982 26.2702 47.8419C28.0754 48.702 29.9657 49.312 31.8647 49.738ZM55.1204 39.477C55.1204 39.3914 55.1241 39.3326 55.1204 39.2734C55.0126 37.407 54.7552 35.5647 54.2633 33.758C54.1975 33.5165 54.09 33.3758 53.8615 33.2728C52.2578 32.5444 50.5975 31.9854 48.8869 31.5704C48.7131 31.528 48.5367 31.4975 48.3154 31.4524C48.747 34.1069 48.9929 36.72 49.0436 39.3513C49.0446 39.3864 49.0661 39.4205 49.0857 39.4775L55.1204 39.477ZM31.1296 39.4907C31.3783 36.7865 31.6229 34.1288 31.8679 31.4624C31.9086 31.4711 31.8843 31.4579 31.8642 31.4624C29.9493 31.8879 28.0955 32.497 26.3205 33.3311C26.1975 33.389 26.0731 33.5539 26.0475 33.6887C25.771 35.1219 25.5003 36.5574 25.2599 37.9969C25.179 38.4816 25.1899 38.9818 25.1584 39.4907H31.1296ZM53.1625 50.6523C52.9586 50.7156 52.8457 50.7548 52.731 50.7862C51.2608 51.1994 49.7938 51.6281 48.3163 52.0126C47.973 52.1018 47.8094 52.2112 47.722 52.5788C47.1429 55.0329 46.3557 57.4114 45.0318 59.5848C45.0231 59.5976 45.0427 59.6276 45.0615 59.6882C48.949 57.7598 51.3957 54.5751 53.1625 50.6523ZM44.9815 21.4698C46.7497 25.0769 46.7552 25.0756 47.7751 28.8334C47.8546 29.1273 48.0507 29.1131 48.24 29.1614C49.2722 29.4261 50.3099 29.6676 51.3371 29.9477C51.9237 30.1085 52.4933 30.3272 53.168 30.5522C51.3957 26.6263 48.9509 23.4365 44.9815 21.4698ZM35.2736 59.7119C35.2421 59.6071 35.2388 59.5698 35.2215 59.542C33.8921 57.3412 33.1113 54.9313 32.523 52.4513C32.458 52.1779 32.325 52.1028 32.0891 52.0385C30.5417 51.6167 28.9979 51.1812 27.4533 50.7507C27.3632 50.7256 27.2727 50.7037 27.1205 50.665C28.8846 54.5682 31.3285 57.7653 35.2736 59.7119ZM27.179 30.519C27.2347 30.509 27.2818 30.5053 27.3262 30.4921C28.9298 30.0416 30.5317 29.5856 32.1385 29.1459C32.3589 29.0854 32.4599 29.0034 32.5157 28.7701C33.1026 26.3042 33.8734 23.9048 35.1886 21.7122C35.2096 21.6771 35.211 21.6297 35.2265 21.5696C32.5371 22.3582 28.0814 27.3214 27.179 30.519ZM38.9467 60.4763C38.9742 60.4472 39.0016 60.4185 39.029 60.3893V52.8485C37.6055 52.7442 36.2094 52.643 34.7584 52.5369C34.9893 53.2899 35.1909 54.0261 35.4409 54.7445C36.0261 56.4296 36.7045 58.0737 37.8793 59.4536C38.197 59.8267 38.5888 60.1374 38.9467 60.4763ZM34.7497 28.6626C36.235 28.5533 37.6325 28.4503 39.0368 28.3474V20.7942C38.9993 20.7778 38.9614 20.7614 38.9239 20.745C36.4416 22.7837 35.6704 25.7329 34.7497 28.6626ZM45.5323 28.6617C45.2558 27.7875 45.0135 26.9365 44.7159 26.1051C44.1358 24.4852 43.4501 22.9135 42.2834 21.6079C41.9986 21.2894 41.6521 21.0261 41.2603 20.6708V28.3496C42.6651 28.453 44.0622 28.5542 45.5323 28.6617ZM41.2686 52.8476V60.4025C41.3042 60.4162 41.3399 60.4299 41.3755 60.4431C43.8423 58.389 44.6231 55.4511 45.5237 52.5374C44.059 52.644 42.6734 52.7451 41.2686 52.8476ZM51.9278 56.9029C55.3943 54.4357 57.8304 51.2117 59.2457 47.232C58.2688 47.877 57.3179 48.5235 56.3438 49.1344C56.0841 49.2979 55.9145 49.4687 55.8158 49.7617C55.1296 51.7998 54.1815 53.7104 52.9614 55.4848C52.6295 55.9659 52.2729 56.431 51.9278 56.9029ZM28.3415 56.882C28.3182 56.8451 28.2976 56.805 28.2706 56.7713C26.5499 54.6124 25.2864 52.2084 24.3963 49.6031C24.3429 49.4473 24.1829 49.3061 24.0384 49.2072C23.1813 48.6182 22.3127 48.0456 21.451 47.4629C21.3166 47.3723 21.1954 47.2625 21.0683 47.1609C22.4475 51.1889 24.8658 54.4288 28.3415 56.882ZM28.2761 24.4009C24.8384 26.8422 22.4357 30.053 21.0441 33.9589C22.0174 33.3193 23.0149 32.677 23.9954 32.0109C24.1751 31.8893 24.3529 31.6943 24.4233 31.4952C25.1831 29.3468 26.1769 27.3192 27.4976 25.4559C27.7499 25.0992 28.016 24.7526 28.2761 24.4009ZM59.1936 34.0026C58.8178 31.3968 54.5065 25.6268 51.9511 24.3139C51.9895 24.3804 52.0073 24.4232 52.0357 24.4583C53.7481 26.6062 54.9929 29.0043 55.8889 31.59C55.9429 31.7453 56.0969 31.8888 56.2395 31.9877C57.1351 32.6077 58.0402 33.2136 58.9422 33.8254C59.0208 33.8787 59.098 33.9357 59.1936 34.0026ZM56.8507 46.2074C58.4178 45.0243 59.7536 43.7009 60.2766 41.7111H57.3728C57.1991 43.2099 57.0277 44.6836 56.8507 46.2074ZM19.9982 41.7093C20.5449 43.6955 21.8464 45.0239 23.4213 46.1947C23.2485 44.6713 23.0816 43.2026 22.912 41.7093H19.9982ZM57.3714 39.472H60.2784C59.7353 37.4858 58.4123 36.1597 56.8507 34.9921C57.0267 36.5064 57.1982 37.9769 57.3714 39.472ZM23.4254 34.9966C21.8482 36.1774 20.5371 37.4986 20.0069 39.477H22.9111C23.0821 37.9855 23.2494 36.5237 23.4254 34.9966Z" fill="#3B53A0"/>
<path d="M69.898 66.2547C69.1488 66.2547 68.4434 66.2169 67.7435 66.262C65.8185 66.3863 64.4855 64.7896 64.2747 63.1309C64.24 62.8585 64.2258 62.5811 64.2258 62.3064C64.2231 56.5281 64.2249 50.7512 64.2231 44.9725C64.2222 43.8131 64.5198 42.7667 65.3678 41.9298C65.9534 41.3517 66.6528 41.0288 67.4939 41.0397C68.1591 41.0488 68.8247 41.0415 69.4889 41.0415C70.0695 32.5823 67.8994 25.0242 62.2807 18.5248C61.6708 18.9407 61.0926 19.3379 60.5111 19.7302C59.9049 20.1383 59.3367 20.06 58.8951 19.476C56.245 15.9755 52.7145 13.751 48.5842 12.3912C45.3746 11.3352 42.0699 10.9616 38.7104 11.1293C34.2112 11.353 29.9913 12.5297 26.1856 15.0074C24.3365 16.2105 22.7273 17.6738 21.4222 19.4518C21.0386 19.9739 20.3232 20.1338 19.7541 19.7229C19.1973 19.3206 18.6208 18.9462 18.0434 18.5539C16.3369 20.4905 14.9225 22.5815 13.7861 24.8588C11.7303 28.977 10.7163 33.3381 10.7287 37.9374C10.731 38.8521 10.7383 39.7673 10.7237 40.6816C10.7191 40.9563 10.7918 41.0602 11.0821 41.0474C11.5717 41.0242 12.0626 41.0379 12.5531 41.0411C14.224 41.0511 15.4459 41.9768 15.8811 43.594C15.984 43.9762 16.0398 44.383 16.0407 44.7793C16.0503 50.6947 16.0512 56.611 16.0439 62.526C16.0425 63.8576 15.5488 64.9668 14.4352 65.7549C13.9726 66.0825 13.4542 66.251 12.8814 66.2492C12.1774 66.2474 11.472 66.2766 10.7694 66.2438C10.3744 66.226 9.98399 66.1112 9.59131 66.0438C9.41942 66.0142 9.2448 65.9627 9.07382 65.9713C7.4528 66.0474 6.18559 65.3468 5.12685 64.1938C4.09051 63.0662 3.41074 61.7315 2.91474 60.2992C1.99862 57.6565 1.73165 54.9323 1.90765 52.1534C2.04982 49.9098 2.49691 47.7382 3.44822 45.69C3.68959 45.1698 3.96937 44.6591 4.28845 44.1826C5.30742 42.6615 6.57874 41.4884 8.55908 41.3171C8.55908 41.1581 8.55725 41.011 8.55954 40.8634C8.58514 39.1223 8.54994 37.3775 8.64914 35.6404C8.90834 31.094 10.2144 26.8387 12.3927 22.8439C13.3737 21.044 14.5294 19.3612 15.8432 17.7863C15.9387 17.672 16.0302 17.554 16.1467 17.4082C15.8057 17.2128 15.4834 17.0292 15.1621 16.8451C14.4096 16.4133 14.2638 15.7942 14.7534 15.0881C16.8768 12.0254 19.6123 9.62777 22.8274 7.76227C26.1207 5.85212 29.669 4.64035 33.4149 3.97114C35.984 3.51239 38.5723 3.31286 41.1767 3.39167C46.89 3.56478 52.3186 4.83487 57.3161 7.68346C60.5678 9.53757 63.3303 11.942 65.483 15.0156C66.0242 15.7878 65.8839 16.4165 65.0647 16.8843C64.773 17.0497 64.4818 17.2155 64.1975 17.3777C64.7995 18.1672 65.408 18.9188 65.9643 19.7056C68.8804 23.832 70.6981 28.3962 71.4217 33.3918C71.776 35.8454 71.7486 38.315 71.7376 40.7837C71.7367 40.9563 71.7371 41.1285 71.7371 41.3144C73.883 41.5285 75.1904 42.8601 76.2226 44.5406C77.3371 46.3533 77.9109 48.3609 78.203 50.446C78.6318 53.5078 78.496 56.5441 77.6206 59.5252C77.1255 61.2103 76.4128 62.7906 75.2256 64.119C74.5202 64.9085 73.7006 65.5326 72.6578 65.8251C72.5563 65.8538 72.4389 65.9572 72.4005 66.0547C70.933 69.7183 68.1463 72.0557 64.6633 73.6807C62.1641 74.8456 59.5168 75.5316 56.7995 75.9343C55.2599 76.1621 53.7042 76.2819 52.1577 76.4664C52.0325 76.4805 51.866 76.5953 51.8121 76.7083C51.1598 78.07 50.0576 78.7588 48.5732 78.7756C45.8569 78.8062 43.1392 78.8034 40.4229 78.7775C38.6766 78.761 37.2695 77.6017 37.0167 76.0482C36.7214 74.2301 38.011 72.5013 39.845 72.2662C40.1435 72.2279 40.4466 72.2093 40.747 72.2083C43.2626 72.2038 45.7783 72.2124 48.2939 72.2038C49.8126 72.1988 51.0057 72.7477 51.7486 74.124C51.7934 74.2069 51.9429 74.287 52.0361 74.2802C56.2171 73.975 60.3264 73.3418 64.1495 71.5004C66.2414 70.4927 68.0585 69.137 69.3682 67.184C69.5291 66.9444 69.6718 66.6938 69.8199 66.4469C69.8446 66.4055 69.8569 66.3563 69.898 66.2547ZM20.277 17.3754C20.3022 17.3367 20.3319 17.2788 20.3721 17.2305C22.2437 15.0024 24.5061 13.2622 27.0939 11.9411C31.989 9.44327 37.1963 8.58455 42.651 9.00776C44.9083 9.18269 47.1113 9.60271 49.2599 10.3029C52.7392 11.4372 55.8715 13.1665 58.5056 15.7308C59.0432 16.2543 59.5497 16.8101 60.0622 17.3426C61.061 16.7162 62.0553 16.0916 63.0624 15.4602C63.0213 15.4028 62.9874 15.3523 62.9499 15.3049C61.0706 12.9214 58.7689 11.0295 56.1321 9.53484C52.171 7.28849 47.8793 6.11953 43.3659 5.71455C41.3751 5.53642 39.3778 5.53734 37.3792 5.68812C35.2128 5.85076 33.0793 6.18559 30.986 6.75868C26.0873 8.09983 21.7527 10.4068 18.2866 14.1829C17.9168 14.5865 17.5735 15.0129 17.2032 15.4466C18.2423 16.0985 19.2379 16.723 20.277 17.3754ZM13.8674 53.6563C13.8674 50.8114 13.8674 47.9669 13.867 45.1219C13.867 44.9224 13.8711 44.7201 13.8555 44.5215C13.7865 43.6537 13.312 43.2154 12.4512 43.2154C11.9232 43.2154 11.3938 43.2346 10.8667 43.2095C10.3845 43.1863 10.0521 43.4036 9.87885 43.8131C9.74537 44.1279 9.63885 44.4841 9.63794 44.8222C9.62331 50.712 9.62148 56.6015 9.64159 62.4918C9.64297 62.8717 9.80708 63.2685 9.96982 63.6239C10.1184 63.9478 10.4279 64.0944 10.8105 64.0849C11.4386 64.0694 12.0681 64.0698 12.6967 64.0844C13.0779 64.094 13.3435 63.9304 13.5493 63.6307C13.8254 63.228 13.8702 62.7747 13.8697 62.3041C13.8651 59.4218 13.8674 56.5391 13.8674 53.6563ZM70.635 53.6476H70.6464C70.6464 50.841 70.6473 48.0343 70.6455 45.2272C70.6446 44.9643 70.6427 44.7001 70.6144 44.4395C70.5243 43.6154 70.0754 43.2168 69.2553 43.2154C68.7017 43.215 68.1481 43.2295 67.5954 43.2122C67.1634 43.1981 66.8242 43.3853 66.693 43.758C66.5358 44.2072 66.416 44.6969 66.4142 45.1698C66.3954 50.8214 66.4018 56.473 66.4046 62.1246C66.4046 62.3998 66.4151 62.6772 66.458 62.9478C66.5801 63.7209 67.0107 64.0808 67.7838 64.0808C68.3241 64.0812 68.8658 64.0598 69.4053 64.0867C69.9237 64.1131 70.2496 63.8598 70.4357 63.4261C70.5463 63.1674 70.6249 62.8731 70.6267 62.5952C70.64 59.6122 70.635 56.6306 70.635 53.6476ZM7.47839 63.4316V43.9539C7.46331 43.9575 7.42308 43.9589 7.39565 43.978C7.31382 44.035 7.23337 44.096 7.15702 44.1616C6.25462 44.9315 5.67405 45.9269 5.24799 47.0066C3.82262 50.6173 3.71108 54.3232 4.53759 58.0766C4.89645 59.7033 5.49074 61.2427 6.57508 62.5451C6.83382 62.8562 7.15337 63.1159 7.47839 63.4316ZM72.8114 43.9179V63.4535C73.1982 63.054 73.5534 62.7414 73.8437 62.3779C74.7767 61.2103 75.2951 59.8427 75.6676 58.4187C76.2926 56.0279 76.3936 53.598 76.1006 51.1548C75.8793 49.3071 75.4167 47.52 74.491 45.8795C74.0686 45.1315 73.5598 44.4559 72.8114 43.9179ZM44.4987 76.6131C45.7801 76.6131 47.0615 76.6163 48.3433 76.6099C48.5554 76.609 48.7721 76.5926 48.9778 76.5457C49.509 76.4227 49.8583 76.0018 49.8583 75.5166C49.8583 75.0059 49.509 74.5713 48.9751 74.4428C48.7941 74.3996 48.603 74.3795 48.416 74.3791C45.8409 74.375 43.2645 74.375 40.6894 74.3791C40.4777 74.3795 40.2606 74.3959 40.0549 74.4406C39.5319 74.5549 39.1534 74.9881 39.1433 75.4537C39.1328 75.9567 39.5163 76.4318 40.0571 76.548C40.2875 76.5981 40.5294 76.609 40.7671 76.6104C42.0105 76.6168 43.2544 76.6131 44.4987 76.6131Z" fill="#3B53A0"/>
</svg>
