<svg width="80" height="80" viewBox="0 0 80 80" fill="none" xmlns="http://www.w3.org/2000/svg">
<path d="M70.8602 69.5578H9.75104C6.13633 69.5578 3.19489 66.6157 3.19489 63.0016V29.2371C3.19489 25.6218 6.13633 22.681 9.75104 22.681H24.1645C24.8346 22.681 25.3773 23.2243 25.3773 23.8931C25.3773 24.5632 24.8346 25.1066 24.1645 25.1066H9.75104C7.47264 25.1066 5.6192 26.9594 5.6192 29.2371V63.001C5.6192 65.2794 7.47264 67.1322 9.75104 67.1322H70.8595C73.1379 67.1322 74.9907 65.2787 74.9907 63.001V29.2371C74.9907 26.9594 73.1373 25.1066 70.8595 25.1066H55.7741C55.104 25.1066 54.5613 24.5626 54.5613 23.8931C54.5613 23.2243 55.104 22.681 55.7741 22.681H70.8595C74.4743 22.681 77.4157 25.6218 77.4157 29.2371V63.001C77.4163 66.6157 74.4749 69.5578 70.8602 69.5578Z" fill="#3B53A0"/>
<path d="M13.68 44.8787H4.40769C3.73761 44.8787 3.19489 44.3353 3.19489 43.6653V32.9779C3.19489 32.3078 3.73761 31.7657 4.40769 31.7657H30.4154C31.0848 31.7657 31.6282 32.3078 31.6282 32.9779C31.6282 33.648 31.0848 34.1913 30.4154 34.1913H5.61985V42.4537H13.68C14.3494 42.4537 14.8928 42.9971 14.8928 43.6659C14.8928 44.3353 14.3494 44.8787 13.68 44.8787Z" fill="#3B53A0"/>
<path d="M76.2035 44.8787H22.5862C21.9162 44.8787 21.3728 44.3353 21.3728 43.6653C21.3728 42.9965 21.9162 42.4531 22.5862 42.4531H74.9914V34.1907H50.1965C49.5264 34.1907 48.983 33.648 48.983 32.9773C48.983 32.3072 49.5264 31.7651 50.1965 31.7651H76.2042C76.8742 31.7651 77.417 32.3072 77.417 32.9773V43.6646C77.4163 44.3353 76.8736 44.8787 76.2035 44.8787Z" fill="#3B53A0"/>
<path d="M54.1862 60.2202H33.0778C32.4077 60.2202 31.8643 59.6768 31.8643 59.0074C31.8643 58.3379 32.4077 57.7946 33.0778 57.7946H54.1862C54.8557 57.7946 55.399 58.3379 55.399 59.0074C55.399 59.6768 54.8557 60.2202 54.1862 60.2202Z" fill="#3B53A0"/>
<path d="M70.8602 69.5578H9.75104C6.13633 69.5578 3.19489 66.6157 3.19489 63.0016V29.2371C3.19489 25.6218 6.13633 22.681 9.75104 22.681H24.8365C25.5066 22.681 26.0499 23.2243 26.0499 23.8931C26.0499 24.5632 25.5066 25.1066 24.8365 25.1066H9.75104C7.47264 25.1066 5.6192 26.9594 5.6192 29.2371V63.001C5.6192 65.2794 7.47264 67.1322 9.75104 67.1322H70.8595C73.1379 67.1322 74.9907 65.2787 74.9907 63.001V29.2371C74.9907 26.9594 73.1373 25.1066 70.8595 25.1066H56.4461C55.7766 25.1066 55.2333 24.5626 55.2333 23.8931C55.2333 23.2243 55.7766 22.681 56.4461 22.681H70.8595C74.4743 22.681 77.4157 25.6218 77.4157 29.2371V63.001C77.4163 66.6157 74.4749 69.5578 70.8602 69.5578Z" fill="#3B53A0"/>
<path d="M25.961 61.623H12.3335C11.0759 61.623 10.0525 60.6003 10.0525 59.3427V53.3293C10.0525 52.0717 11.0765 51.049 12.3335 51.049H25.961C27.2199 51.049 28.2426 52.0723 28.2426 53.3293V59.3427C28.2432 60.6003 27.2199 61.623 25.961 61.623ZM12.4781 59.1974H25.8176V53.4733H12.4781V59.1974Z" fill="#3B53A0"/>
<path d="M47.9066 54.8762H33.0778C32.4077 54.8762 31.8643 54.3334 31.8643 53.6634C31.8643 52.9939 32.4077 52.4512 33.0778 52.4512H47.9072C48.5773 52.4512 49.12 52.9939 49.12 53.6634C49.1194 54.3334 48.5766 54.8762 47.9066 54.8762Z" fill="#3B53A0"/>
<path d="M40.3059 40.5235C39.6358 40.5235 39.0925 39.9802 39.0925 39.3101V14.4512C39.0925 13.7811 39.6365 13.2378 40.3059 13.2378C40.9753 13.2378 41.5187 13.7811 41.5187 14.4512V39.3107C41.5181 39.9808 40.9747 40.5235 40.3059 40.5235Z" fill="#3B53A0"/>
<path d="M40.3059 40.5235C39.9405 40.5235 39.5955 40.3584 39.3645 40.0755L35.0266 34.7398C34.6042 34.2195 34.6829 33.4566 35.2026 33.0342C35.7229 32.6099 36.4858 32.6906 36.9075 33.2102L40.3059 37.3888L43.7037 33.2102C44.1255 32.6899 44.889 32.6118 45.4093 33.0342C45.929 33.4566 46.0077 34.2202 45.5846 34.7398L41.2467 40.0755C41.0163 40.359 40.6707 40.5235 40.3059 40.5235Z" fill="#3B53A0"/>
<path d="M50.1965 28.5178C49.5264 28.5178 48.9837 27.975 48.9837 27.305V11.6614C48.9837 10.992 49.5264 10.4493 50.1965 10.4493C50.8666 10.4493 51.4099 10.992 51.4099 11.6614V27.305C51.4099 27.975 50.8666 28.5178 50.1965 28.5178Z" fill="#3B53A0"/>
<path d="M30.4147 28.5178C29.7446 28.5178 29.2019 27.975 29.2019 27.305V11.6614C29.2019 10.992 29.7446 10.4493 30.4147 10.4493C31.0841 10.4493 31.6275 10.992 31.6275 11.6614V27.305C31.6275 27.975 31.0841 28.5178 30.4147 28.5178Z" fill="#3B53A0"/>
</svg>
