<svg width="80" height="80" viewBox="0 0 80 80" fill="none" xmlns="http://www.w3.org/2000/svg">
<path d="M46.5734 73.0912H33.6697C33.072 73.0912 32.5875 72.6061 32.5875 72.0083V65.1891C30.9382 64.6918 29.337 64.0282 27.8112 63.2064L22.9862 68.0314C22.5638 68.4544 21.8784 68.4544 21.456 68.0314L12.3328 58.9082C12.1299 58.7046 12.016 58.4301 12.016 58.1427C12.016 57.8566 12.1299 57.5802 12.3328 57.3779L17.1577 52.553C16.3373 51.0259 15.6729 49.4253 15.175 47.7766H8.35455C7.75679 47.7766 7.27231 47.2915 7.27231 46.695V33.7914C7.27231 33.1936 7.75679 32.7091 8.35455 32.7091H15.1744C15.6723 31.0592 16.3366 29.4592 17.1571 27.9322L12.3321 23.1072C12.1293 22.905 12.0153 22.6291 12.0153 22.3424C12.0153 22.0557 12.1293 21.7798 12.3321 21.5776L21.456 12.4538C21.6589 12.2502 21.9341 12.1363 22.2208 12.1363C22.5081 12.1363 22.7833 12.2502 22.9862 12.4538L27.8112 17.2787C29.3376 16.4582 30.9382 15.7933 32.5875 15.296V8.47616C32.5875 7.87776 33.072 7.39328 33.6697 7.39328H46.5728C47.1705 7.39328 47.6544 7.8784 47.6544 8.47616V15.296C49.3037 15.7933 50.9049 16.4589 52.4307 17.2787L57.2557 12.4538C57.4585 12.2502 57.7344 12.1363 58.0205 12.1363C58.3078 12.1363 58.583 12.2502 58.7859 12.4538L67.9097 21.5776C68.3321 22 68.3321 22.6848 67.9097 23.1072L63.0848 27.9322C63.9053 29.4592 64.5689 31.0611 65.0681 32.7091H71.8867C72.4845 32.7091 72.9689 33.1936 72.9689 33.7914V46.6944C72.9689 47.2915 72.4838 47.776 71.8867 47.776H65.0688C64.5702 49.424 63.9065 51.024 63.0854 52.5523L67.9104 57.3773C68.3328 57.7997 68.3328 58.4851 67.9104 58.9082L58.7865 68.0314C58.3641 68.4544 57.6787 68.4544 57.2557 68.0314L52.4307 63.2064C50.9037 64.0275 49.303 64.6918 47.6544 65.1891V72.0083C47.655 72.6061 47.1706 73.0912 46.5734 73.0912ZM34.752 70.9261H45.4906V64.3725C45.4906 63.881 45.8201 63.4522 46.2937 63.3261C48.3091 62.7885 50.2547 61.9808 52.0755 60.9261C52.5005 60.681 53.0368 60.752 53.383 61.0982L58.0211 65.7363L65.6147 58.1427L60.9766 53.504C60.6297 53.1578 60.5593 52.6214 60.8045 52.1965C61.8592 50.3757 62.6669 48.4301 63.2045 46.4154C63.3306 45.9424 63.7606 45.6115 64.2509 45.6115H70.8045V34.8736H64.2509C63.7606 34.8736 63.3306 34.5427 63.2045 34.0704C62.6669 32.055 61.8592 30.1094 60.8045 28.288C60.5587 27.8637 60.6297 27.3267 60.9766 26.9805L65.6147 22.3424L58.0211 14.7494L53.383 19.3875C53.0368 19.7344 52.5011 19.8054 52.0749 19.5584C50.256 18.505 48.3104 17.6966 46.2937 17.159C45.8201 17.0323 45.4906 16.6035 45.4906 16.1133V9.5584H34.752V16.1133C34.752 16.6035 34.4224 17.0323 33.9488 17.159C31.9321 17.6966 29.9872 18.505 28.1664 19.5584C27.7421 19.8054 27.2057 19.7344 26.8589 19.3875L22.2208 14.7494L14.6278 22.3424L19.2659 26.9805C19.6128 27.3267 19.6832 27.8637 19.4374 28.288C18.3827 30.1082 17.5757 32.0538 17.0374 34.0704C16.9113 34.5434 16.4825 34.8736 15.9917 34.8736H9.43679V45.6109H15.9917C16.4825 45.6109 16.9113 45.9418 17.0374 46.4147C17.575 48.4307 18.3821 50.3763 19.4374 52.1958C19.6832 52.6202 19.6134 53.1571 19.2659 53.5034L14.6278 58.1421L22.2208 65.7357L26.8589 61.0976C27.2057 60.7514 27.7421 60.681 28.1664 60.9254C29.9872 61.9795 31.9321 62.7878 33.9488 63.3254C34.4224 63.4515 34.752 63.8803 34.752 64.3718V70.9261Z" fill="#3B53A0"/>
<path d="M40.1209 60.3712C29.0214 60.3712 19.991 51.3427 19.991 40.2426C19.991 29.143 29.0214 20.1133 40.1209 20.1133C40.7187 20.1133 41.2032 20.5978 41.2032 21.1949C41.2032 21.7933 40.7181 22.2778 40.1209 22.2778C30.215 22.2778 22.1555 30.3366 22.1555 40.2426C22.1555 50.1478 30.215 58.2074 40.1209 58.2074C50.0275 58.2074 58.0857 50.1472 58.0857 40.2426C58.0857 35.4438 56.2169 30.9325 52.8243 27.5392C52.4019 27.1168 52.4019 26.432 52.8243 26.009C53.2467 25.5859 53.9315 25.5859 54.3552 26.009C58.1568 29.8106 60.2509 34.8653 60.2509 40.2426C60.2515 51.3427 51.2211 60.3712 40.1209 60.3712Z" fill="#3B53A0"/>
<path d="M40.121 31.4125C39.5232 31.4125 39.0387 30.9274 39.0387 30.3302V25.831C39.0387 25.2333 39.5232 24.7495 40.121 24.7495C40.7187 24.7495 41.2032 25.2339 41.2032 25.831V30.3302C41.2038 30.9274 40.7187 31.4125 40.121 31.4125Z" fill="#3B53A0"/>
<path d="M47.8515 33.5949C47.5738 33.5949 47.2973 33.4893 47.0867 33.2781C46.6643 32.8557 46.6643 32.1702 47.0867 31.7466L49.5469 29.2864C49.9706 28.8634 50.6547 28.8634 51.0784 29.2864C51.5008 29.7094 51.5008 30.3936 51.0784 30.8166L48.617 33.2774C48.4051 33.4893 48.1286 33.5949 47.8515 33.5949Z" fill="#3B53A0"/>
<path d="M54.5331 41.3248H50.0352C49.4368 41.3248 48.9517 40.8397 48.9517 40.2426C48.9517 39.6448 49.4375 39.1603 50.0352 39.1603H54.5331C55.1315 39.1603 55.6147 39.6448 55.6147 40.2426C55.6147 40.8403 55.1315 41.3248 54.5331 41.3248Z" fill="#3B53A0"/>
<path d="M50.3117 51.5149C50.0346 51.5149 49.7581 51.4099 49.5475 51.1987L47.0854 48.7373C46.663 48.3149 46.663 47.6301 47.0854 47.207C47.5085 46.7834 48.1933 46.7834 48.6163 47.207L51.0778 49.6672C51.5002 50.0902 51.5002 50.775 51.0778 51.1987C50.8666 51.4099 50.5888 51.5149 50.3117 51.5149Z" fill="#3B53A0"/>
<path d="M40.121 55.7363C39.5232 55.7363 39.0387 55.2525 39.0387 54.6547V50.1555C39.0387 49.5584 39.5232 49.0739 40.121 49.0739C40.7187 49.0739 41.2032 49.559 41.2032 50.1555V54.6547C41.2038 55.2525 40.7187 55.7363 40.121 55.7363Z" fill="#3B53A0"/>
<path d="M29.9309 51.5149C29.6538 51.5149 29.3766 51.4099 29.1654 51.1987C28.743 50.7757 28.743 50.0909 29.1654 49.6672L31.6262 47.207C32.0493 46.7834 32.7341 46.7834 33.1571 47.207C33.5795 47.6294 33.5795 48.3142 33.1571 48.7373L30.6957 51.1987C30.4845 51.4099 30.208 51.5149 29.9309 51.5149Z" fill="#3B53A0"/>
<path d="M30.2086 41.3248H25.7101C25.1123 41.3248 24.6278 40.8397 24.6278 40.2426C24.6278 39.6448 25.1123 39.1603 25.7101 39.1603H30.2086C30.8064 39.1603 31.2909 39.6448 31.2909 40.2426C31.2909 40.8403 30.8064 41.3248 30.2086 41.3248Z" fill="#3B53A0"/>
<path d="M32.3917 33.5949C32.1146 33.5949 31.8381 33.4893 31.6269 33.2781L29.1654 30.8173C28.743 30.3942 28.743 29.7101 29.1654 29.287C29.5885 28.864 30.2733 28.864 30.6963 29.287L33.1571 31.7472C33.5795 32.1702 33.5795 32.8557 33.1571 33.2787C32.9459 33.4893 32.6688 33.5949 32.3917 33.5949Z" fill="#3B53A0"/>
<path d="M43.0074 41.3248H40.121C39.5232 41.3248 39.0387 40.8397 39.0387 40.2425V36.0166C39.0387 35.4189 39.5232 34.935 40.121 34.935C40.7187 34.935 41.2038 35.4189 41.2038 36.0166V39.1603H43.0074C43.6051 39.1603 44.0883 39.6448 44.0883 40.2425C44.089 40.8403 43.6051 41.3248 43.0074 41.3248Z" fill="#3B53A0"/>
</svg>
